# xmcd
#
# Track frame offsets:
#	183
#	18075
#	34888
#	54933
#	71995
#	92400
#	110810
#	123765
#	144545
#
# Disc length: 2130 seconds
#
# Revision: 1
# Processed by: cddbd v1.5.1PL2 Copyright (c) Steve Scherf et al.
# Submitted via: audiograbber 1.83.01
#
DISCID=75085009
DTITLE=Kenny Moore - Have You Got A Moment?
DYEAR=1988
DGENRE=R&B
TTITLE0=Want To Know
TTITLE1=Straight From Your Heart
TTITLE2=Just Because Of You
TTITLE3=Lady Of The Night
TTITLE4=Hooked
TTITLE5=Just One Look
TTITLE6=Didn't I Blow Your Mind
TTITLE7=Believe
TTITLE8=Give It Up
EXTD=
EXTT0=
EXTT1=
EXTT2=
EXTT3=
EXTT4=
EXTT5=
EXTT6=
EXTT7=
EXTT8=
PLAYORDER=
